<?xml version="1.0" encoding="UTF-8" standalone="no"?>
<svg
   version="1.1"
   id="Layer_1"
   x="0px"
   y="0px"
   width="460"
   height="460"
   viewBox="0 0 460 460"
   xml:space="preserve"
   xmlns="http://www.w3.org/2000/svg"
   xmlns:svg="http://www.w3.org/2000/svg"><defs
   id="defs2525">
		
	
	
</defs>
<path
   d="m 231.83438,29.978578 c -111.08459,0 -201.137203,90.052622 -201.137203,201.137202 0,111.08458 90.052613,201.1372 201.137203,201.1372 111.08457,0 201.1372,-90.05175 201.1372,-201.1372 0,-111.08546 -90.05263,-201.137202 -201.1372,-201.137202 z m 33.52257,330.004932 c 0,7.58724 -6.1513,13.73855 -13.73855,13.73855 h -37.69223 c -7.58725,0 -13.73855,-6.15131 -13.73855,-13.73855 V 207.04665 c 0,-7.58724 6.15043,-13.73854 13.73855,-13.73854 h 37.69223 c 7.58725,0 13.73855,6.15042 13.73855,13.73854 z M 231.83438,167.27659 c -18.83607,0 -34.10587,-15.26983 -34.10587,-34.10588 0,-18.83607 15.2698,-34.10588 34.10587,-34.10588 18.83606,0 34.10587,15.26981 34.10587,34.10588 0,18.83605 -15.26981,34.10588 -34.10587,34.10588 z"
   id="path2487"
   style="display:inline;fill:#ffffff;fill-opacity:1;stroke:none;stroke-width:0.999985" />















</svg>
